<svg width="19" height="18" viewBox="0 0 19 18" fill="none" xmlns="http://www.w3.org/2000/svg">
<g id="Star">
<g id="Iconly/Bold/Star">
<g id="Star_2">
<path id="Vector" d="M13.7976 10.74C13.6033 10.9283 13.5141 11.2005 13.5583 11.4675L14.2251 15.1575C14.2813 15.4703 14.1493 15.7868 13.8876 15.9675C13.6311 16.155 13.2898 16.1775 13.0101 16.0275L9.68831 14.295C9.57281 14.2335 9.44456 14.2005 9.31331 14.1968H9.11006C9.03956 14.2073 8.97056 14.2298 8.90756 14.2643L5.58506 16.005C5.42081 16.0875 5.23481 16.1168 5.05256 16.0875C4.60856 16.0035 4.31231 15.5805 4.38506 15.1343L5.05256 11.4443C5.09681 11.175 5.00756 10.9013 4.81331 10.71L2.10506 8.085C1.87856 7.86525 1.79981 7.53525 1.90331 7.2375C2.00381 6.9405 2.26031 6.72375 2.57006 6.675L6.29756 6.13425C6.58106 6.105 6.83006 5.9325 6.95756 5.6775L8.60006 2.31C8.63906 2.235 8.68931 2.166 8.75006 2.1075L8.81756 2.055C8.85281 2.016 8.89331 1.98375 8.93831 1.9575L9.02006 1.9275L9.14756 1.875H9.46331C9.74531 1.90425 9.99356 2.073 10.1233 2.325L11.7876 5.6775C11.9076 5.92275 12.1408 6.093 12.4101 6.13425L16.1376 6.675C16.4526 6.72 16.7158 6.9375 16.8201 7.2375C16.9183 7.53825 16.8336 7.86825 16.6026 8.085L13.7976 10.74Z" fill="#F6973F"/>
</g>
</g>
</g>
</svg>
